<?xml version="1.0" encoding="UTF-8" standalone="no"?>
<svg
   height="14px"
   version="1.1"
   viewBox="3 5 16 19"
   width="14px"
   xml:space="preserve"
   id="svg22"
   sodipodi:docname="cifrao1.svg"
   inkscape:version="1.2.1 (0f2f062aeb, 2022-09-21, custom)"
   xmlns:inkscape="http://www.inkscape.org/namespaces/inkscape"
   xmlns:sodipodi="http://sodipodi.sourceforge.net/DTD/sodipodi-0.dtd"
   xmlns="http://www.w3.org/2000/svg"
   xmlns:svg="http://www.w3.org/2000/svg"><defs
   id="defs26">
    
  </defs><sodipodi:namedview
   id="namedview24"
   pagecolor="#ffffff"
   bordercolor="#000000"
   borderopacity="0.25"
   inkscape:showpageshadow="2"
   inkscape:pageopacity="0.0"
   inkscape:pagecheckerboard="0"
   inkscape:deskcolor="#d1d1d1"
   showgrid="false"
   inkscape:zoom="62.5"
   inkscape:cx="6.992"
   inkscape:cy="6.992"
   inkscape:window-width="3840"
   inkscape:window-height="2123"
   inkscape:window-x="0"
   inkscape:window-y="0"
   inkscape:window-maximized="1"
   inkscape:current-layer="svg22" />
  <path
   d="M -0.86742899,2.9292709 Z M 11.582571,13.879271 c -0.67,-0.22 -1.18,-0.47 -1.52,-0.72 -0.3399999,-0.26 -0.5199999,-0.57 -0.5199999,-0.95 0,-0.41 0.15,-0.73 0.44,-0.98 0.2899999,-0.25 0.7099999,-0.37 1.2399999,-0.37 0.55,0 1.23,0.15 1.53,0.44 0.18,0.16 0.31,0.38 0.38,0.63 h 2 c -0.07,-0.46 -0.26,-0.88 -0.49,-1.27 -0.33,-0.55 -0.78,-0.9800001 -1.37,-1.2800001 -0.35,-0.18 -0.73,-0.28 -1.14,-0.36 v -1.09 h -2 v 1.12 c -0.3099999,0.07 -0.6199999,0.16 -0.8999999,0.29 -0.6,0.29 -1.06,0.6700001 -1.38,1.1700001 -0.32,0.49 -0.48,1.05 -0.48,1.68 0,1.21 0.6,2.18 1.8,2.9 0.44,0.26 1.0399999,0.53 1.7899999,0.8 0.75,0.27 1.27,0.53 1.56,0.77 0.29,0.24 0.43,0.59 0.43,1.05 0,0.42 -0.14,0.74 -0.43,0.97 -0.29,0.23 -0.69,0.35 -1.21,0.35 -1.05,0 -1.9199999,-0.37 -2.1799999,-1.1 h -2 c 0.08,0.42 0.22,0.81 0.44,1.16 0.35,0.57 0.86,1.02 1.52,1.35 0.33,0.16 0.67,0.28 1.0399999,0.37 v 1.12 h 2 v -1.05 c 0.79,-0.11 1.45,-0.38 1.97,-0.81 0.69,-0.57 1.03,-1.37 1.03,-2.38 0,-0.91 -0.28,-1.67 -0.85,-2.28 -0.57,-0.61 -1.46,-1.12 -2.7,-1.53 z"
   id="path18" />
</svg>
