<?xml version="1.0" ?>
<!DOCTYPE svg  PUBLIC '-//W3C//DTD SVG 1.1//EN'  'http://www.w3.org/Graphics/SVG/1.1/DTD/svg11.dtd'>
<svg height="14px" version="1.1" viewBox="0 0 14 14" width="14px" xml:space="preserve" xmlns="http://www.w3.org/2000/svg" xmlns:serif="http://www.serif.com/" xmlns:xlink="http://www.w3.org/1999/xlink">
  <g fill="rgba (255, 255, 255, 0.443)">
    <path d="M10.8889,5.5 L3.11111,5.5 L3.11111,7.05556 L10.8889,7.05556 L10.8889,5.5 Z M12.4444,1.05556 L11.6667,1.05556 L11.6667,0 L10.1111,0 L10.1111,1.05556 L3.88889,1.05556 L3.88889,0 L2.33333,0 L2.33333,1.05556 L1.55556,1.05556 C0.692222,1.05556 0.00777777,1.75556 0.00777777,2.61111 L0,12.5 C0,13.3556 0.692222,14 1.55556,14 L12.4444,14 C13.3,14 14,13.3556 14,12.5 L14,2.61111 C14,1.75556 13.3,1.05556 12.4444,1.05556 Z M12.4444,12.5 L1.55556,12.5 L1.55556,3.94444 L12.4444,3.94444 L12.4444,12.5 Z M8.55556,8.61111 L3.11111,8.61111 L3.11111,10.1667 L8.55556,10.1667 L8.55556,8.61111 Z"/>
  </g>
</svg>