<?xml version="1.0" ?>
<!DOCTYPE svg  PUBLIC '-//W3C//DTD SVG 1.1//EN'  'http://www.w3.org/Graphics/SVG/1.1/DTD/svg11.dtd'>
<svg height="14px" version="1.1" viewBox="0 0 14 14" width="14px" xml:space="preserve" xmlns="http://www.w3.org/2000/svg" xmlns:serif="http://www.serif.com/" xmlns:xlink="http://www.w3.org/1999/xlink">
  <g fill="rgba (255, 255, 255, 0.443)">
    <path d="M 7 4.56818 C 7 4.29204 6.77614 4.06818 6.5 4.06818 L 0.5 4.06818 C 0.223858 4.06818 0 4.29204 0 4.56818 L 0 5.61364 C 0 5.88978 0.223858 6.11364 0.5 6.11364 L 6.5 6.11364 C 6.77614 6.11364 7 5.88978 7 5.61364 L 7 4.56818 Z M 0.5 1 C 0.223858 1 0 1.22386 0 1.5 L 0 2.54545 C 0 2.8216 0.223858 3.04545 0.5 3.04545 L 12.5 3.04545 C 12.7761 3.04545 13 2.8216 13 2.54545 L 13 1.5 C 13 1.22386 12.7761 1 12.5 1 L 0.5 1 Z M 0 8.68182 C 0 8.95796 0.223858 9.18182 0.5 9.18182 L 11.5 9.18182 C 11.7761 9.18182 12 8.95796 12 8.68182 L 12 7.63636 C 12 7.36022 11.7761 7.13636 11.5 7.13636 L 0.5 7.13636 C 0.223858 7.13636 0 7.36022 0 7.63636 L 0 8.68182 Z M 0 11.75 C 0 12.0261 0.223858 12.25 0.5 12.25 L 9.5 12.25 C 9.77614 12.25 10 12.0261 10 11.75 L 10 10.7045 C 10 10.4284 9.77614 10.2045 9.5 10.2045 L 0.5 10.2045 C 0.223858 10.2045 0 10.4284 0 10.7045 L 0 11.75 Z"/>
  </g>
</svg>