<?xml version="1.0" ?>
<!DOCTYPE svg  PUBLIC '-//W3C//DTD SVG 1.1//EN'  'http://www.w3.org/Graphics/SVG/1.1/DTD/svg11.dtd'>
<svg height="20px" version="1.1" viewBox="0 0 640 512" width="20px" xml:space="preserve" xmlns="http://www.w3.org/2000/svg" xmlns:serif="http://www.serif.com/" xmlns:xlink="http://www.w3.org/1999/xlink">
  <g fill="rgba (255, 255, 255, 0.443)">
    <path d="M 312.5 168.5 c -4.7 -4.7 -12.3 -4.7 -17 0 l -98.3 98.3 c -4.7 4.7 -4.7 12.3 0 17 l 5.7 5.7 c 4.7 4.7 12.3 4.7 17 0 l 68.2 -68.2 V 372 c 0 6.6 5.4 12 12 12 h 8 c 6.6 0 12 -5.4 12 -12 V 221.3 l 68.2 68.2 c 4.7 4.7 12.3 4.7 17 0 l 5.7 -5.7 c 4.7 -4.7 4.7 -12.3 0 -17 l -98.5 -98.3 Z m 259.2 70.3 c 2.8 -9.9 4.3 -20.2 4.3 -30.8 c 0 -61.9 -50.1 -112 -112 -112 c -16.7 0 -32.9 3.6 -48 10.8 c -31.6 -45 -84.3 -74.8 -144 -74.8 c -94.4 0 -171.7 74.5 -175.8 168.2 C 39.2 220.2 0 274.3 0 336 c 0 79.6 64.4 144 144 144 h 368 c 70.7 0 128 -57.2 128 -128 c 0 -47 -25.8 -90.8 -68.3 -113.2 Z M 512 448 H 144 c -61.9 0 -112 -50.1 -112 -112 c 0 -56.8 42.2 -103.7 97 -111 c -0.7 -5.6 -1 -11.3 -1 -17 c 0 -79.5 64.5 -144 144 -144 c 60.3 0 111.9 37 133.4 89.6 C 420 137.9 440.8 128 464 128 c 44.2 0 80 35.8 80 80 c 0 18.5 -6.3 35.6 -16.9 49.2 C 573 264.4 608 304.1 608 352 c 0 53 -43 96 -96 96 Z"/>
  </g>
</svg>